<svg width="37" height="35" viewBox="0 0 37 35" fill="none" xmlns="http://www.w3.org/2000/svg">
<path d="M29.8 26.355L29.46 26.055C28.4954 25.1956 27.6512 24.2101 26.95 23.125C26.1842 21.6275 25.7252 19.9922 25.6 18.315V13.375C25.6066 10.7406 24.651 8.19447 22.9127 6.21497C21.1745 4.23547 18.7732 2.95886 16.16 2.625V1.335C16.16 0.980936 16.0193 0.641374 15.769 0.391013C15.5186 0.140651 15.1791 0 14.825 0C14.4709 0 14.1314 0.140651 13.881 0.391013C13.6307 0.641374 13.49 0.980936 13.49 1.335V2.645C10.9003 3.00293 8.52797 4.28726 6.81253 6.26011C5.09709 8.23296 4.15473 10.7606 4.16 13.375V18.315C4.03475 19.9922 3.57578 21.6275 2.81 23.125C2.12088 24.2073 1.29019 25.1927 0.34 26.055L0 26.355V29.175H29.8V26.355Z" fill="#003358"/>
<path d="M9.94995 30.225C10.117 31.3337 10.7153 32.3495 11.6343 33.0847C12.5533 33.82 13.7311 34.225 14.95 34.225C16.1688 34.225 17.3466 33.82 18.2656 33.0847C19.1846 32.3495 19.7829 31.3337 19.95 30.225H9.94995Z" fill="#003358"/>
<circle cx="32" cy="5.22498" r="5" fill="#FF5C00"/>
</svg>
