<svg width="20" height="25" viewBox="0 0 20 25" fill="none" xmlns="http://www.w3.org/2000/svg">
<path d="M20 13.75V22.5C20 23.163 19.7366 23.7989 19.2678 24.2678C18.7989 24.7366 18.163 25 17.5 25C16.837 25 16.2011 24.7366 15.7322 24.2678C15.2634 23.7989 15 23.163 15 22.5V16.25H12.5V3.75C12.5 2.75544 12.8951 1.80161 13.5983 1.09835C14.3016 0.395088 15.2554 0 16.25 0L20 0V13.75ZM2.5 12.5C1.83696 12.5 1.20107 12.2366 0.732233 11.7678C0.263392 11.2989 0 10.663 0 10V1.25C0 0.918479 0.131696 0.600537 0.366116 0.366117C0.600537 0.131696 0.918479 0 1.25 0C1.58152 0 1.89946 0.131696 2.13388 0.366117C2.3683 0.600537 2.5 0.918479 2.5 1.25V6.25H3.75V1.25C3.75 0.918479 3.8817 0.600537 4.11612 0.366117C4.35054 0.131696 4.66848 0 5 0C5.33152 0 5.64946 0.131696 5.88388 0.366117C6.1183 0.600537 6.25 0.918479 6.25 1.25V6.25H7.5V1.25C7.5 0.918479 7.6317 0.600537 7.86612 0.366117C8.10054 0.131696 8.41848 0 8.75 0C9.08152 0 9.39946 0.131696 9.63388 0.366117C9.8683 0.600537 10 0.918479 10 1.25V10C10 10.663 9.73661 11.2989 9.26777 11.7678C8.79893 12.2366 8.16304 12.5 7.5 12.5V22.5C7.5 23.163 7.23661 23.7989 6.76777 24.2678C6.29893 24.7366 5.66304 25 5 25C4.33696 25 3.70107 24.7366 3.23223 24.2678C2.76339 23.7989 2.5 23.163 2.5 22.5V12.5Z" fill="#0094FF"/>
</svg>
