<svg width="27" height="27" viewBox="0 0 27 27" fill="none" xmlns="http://www.w3.org/2000/svg">
<path d="M21.6955 1.92846C21.0426 1.92678 20.395 2.04691 19.7861 2.2827C20.3078 3.01248 20.697 3.82833 20.936 4.69295C20.9538 4.75428 20.9593 4.81855 20.9521 4.88201C20.9449 4.94547 20.9251 5.00687 20.894 5.06264C20.8628 5.1184 20.8209 5.16743 20.7707 5.20686C20.7204 5.24629 20.6629 5.27535 20.6013 5.29234C20.5397 5.30933 20.4754 5.31392 20.412 5.30583C20.3487 5.29775 20.2876 5.27716 20.2322 5.24526C20.1769 5.21336 20.1285 5.17078 20.0897 5.12C20.051 5.06921 20.0227 5.01124 20.0066 4.94944C19.6915 3.81147 19.0835 2.77603 18.2432 1.9465C17.4028 1.11697 16.3596 0.522358 15.2177 0.222021C14.0757 -0.0783158 12.875 -0.0738714 11.7353 0.23491C10.5956 0.543692 9.55683 1.14601 8.72268 1.98174C9.5968 2.55073 10.3151 3.32887 10.8125 4.24564C11.3098 5.16241 11.5705 6.18882 11.5709 7.23181C11.5709 7.35968 11.5201 7.48231 11.4297 7.57272C11.3393 7.66314 11.2167 7.71393 11.0888 7.71393C10.9609 7.71393 10.8383 7.66314 10.7479 7.57272C10.6575 7.48231 10.6067 7.35968 10.6067 7.23181C10.6065 6.22884 10.3218 5.24648 9.78584 4.39875C9.24983 3.55101 8.48442 2.87266 7.57842 2.44239C6.67242 2.01213 5.66298 1.8476 4.66725 1.9679C3.67152 2.0882 2.73031 2.48839 1.95285 3.12204C1.17539 3.75569 0.593548 4.59682 0.274851 5.54781C-0.0438454 6.49881 -0.0863338 7.52068 0.152317 8.49485C0.390967 9.46902 0.900971 10.3555 1.62315 11.0515C2.34532 11.7475 3.25006 12.2245 4.23237 12.427C4.3276 12.4466 4.41471 12.4944 4.48226 12.5643C4.54981 12.6342 4.59465 12.7229 4.6109 12.8188L6.19292 22.1776H9.12465L8.67947 15.9444H8.67995C8.67911 15.933 8.6782 15.9216 8.6782 15.9101C8.67981 15.7863 8.72898 15.6678 8.81553 15.5793C8.90208 15.4908 9.01938 15.4389 9.14312 15.4345C9.26685 15.4301 9.38754 15.4735 9.48018 15.5556C9.57281 15.6378 9.63029 15.7524 9.6407 15.8758H9.64118L10.0914 22.1776H13.0173V16.8743C13.0173 16.7464 13.0681 16.6238 13.1585 16.5333C13.2489 16.4429 13.3716 16.3921 13.4994 16.3921C13.6273 16.3921 13.7499 16.4429 13.8403 16.5333C13.9308 16.6238 13.9815 16.7464 13.9815 16.8743V22.1776H16.9075L17.3577 15.8757H17.3582C17.3686 15.7523 17.426 15.6376 17.5187 15.5555C17.6113 15.4733 17.732 15.43 17.8558 15.4344C17.9795 15.4388 18.0968 15.4907 18.1833 15.5792C18.2699 15.6678 18.3191 15.7862 18.3206 15.91C18.3206 15.9216 18.3197 15.9329 18.3189 15.9443H18.3194L17.8742 22.1776H20.8059L22.388 12.8189C22.4042 12.7231 22.449 12.6344 22.5166 12.5645C22.5841 12.4946 22.6712 12.4467 22.7665 12.4272C24.053 12.1621 25.1955 11.429 25.9725 10.3699C26.7495 9.31076 27.1059 8.00097 26.9726 6.69415C26.8393 5.38734 26.2258 4.17648 25.2509 3.29607C24.276 2.41566 23.0091 1.92833 21.6955 1.92846Z" fill="#0094FF"/>
<path d="M6.26758 23.1418H20.7312V26.9988H6.26758V23.1418Z" fill="#0094FF"/>
</svg>
