<svg width="26" height="26" viewBox="0 0 26 26" fill="none" xmlns="http://www.w3.org/2000/svg">
<path d="M22.75 0H3.25C1.45234 0 0 1.45234 0 3.25V16.25C0 18.0477 1.45234 19.5 3.25 19.5H9.75L7.58164 26L17.3316 19.5H22.75C24.5477 19.5 26 18.0477 26 16.25V3.25C26 1.45234 24.5477 0 22.75 0ZM6.5 11.9184C5.30156 11.9184 4.33164 10.9484 4.33164 9.75C4.33164 8.55156 5.30156 7.58164 6.5 7.58164C7.69844 7.58164 8.66836 8.55156 8.66836 9.75C8.66836 10.9484 7.69844 11.9184 6.5 11.9184ZM13 11.9184C11.8016 11.9184 10.8316 10.9484 10.8316 9.75C10.8316 8.55156 11.8016 7.58164 13 7.58164C14.1984 7.58164 15.1684 8.55156 15.1684 9.75C15.1684 10.9484 14.1984 11.9184 13 11.9184ZM19.5 11.9184C18.3016 11.9184 17.3316 10.9484 17.3316 9.75C17.3316 8.55156 18.3016 7.58164 19.5 7.58164C20.6984 7.58164 21.6684 8.55156 21.6684 9.75C21.6684 10.9484 20.6984 11.9184 19.5 11.9184Z" fill="white"/>
</svg>
