<svg width="24" height="31" viewBox="0 0 24 31" fill="none" xmlns="http://www.w3.org/2000/svg">
<path d="M12.68 8.80469C13.2142 7.91256 14.0596 6.63574 15.1273 5.41058H15.1285C16.0328 4.37078 17.8037 3.03623 17.8037 3.03623C18.0699 2.83507 18.0413 2.55492 17.7387 2.41393L15.5983 1.41362C15.2957 1.27202 14.8842 1.37534 14.6837 1.64212C14.6837 1.64212 13.1006 3.91317 11.2373 8.74756C5.47615 6.14167 0 9.79162 0 16.1386C0 22.7682 5.10058 32.8387 11.9982 29.7989C19.2628 32.9426 24 22.7688 24 16.1386C24 9.73693 19.0775 5.98366 12.68 8.80469Z" fill="white"/>
<path d="M11.3898 6.65765C11.7228 6.6297 12.017 6.33495 12.0437 6.00253C12.0437 6.00253 12.2576 3.41001 10.4509 1.60144C8.63866 -0.20774 6.051 0.0080002 6.051 0.0080002C5.71797 0.0359552 5.42383 0.330698 5.39648 0.66312C5.39648 0.66312 5.17892 3.25686 6.9881 5.06604C8.79606 6.87339 11.3898 6.65765 11.3898 6.65765Z" fill="white"/>
</svg>
