<svg width="33" height="33" viewBox="0 0 33 33" fill="none" xmlns="http://www.w3.org/2000/svg">
<path d="M1.64959 19.7904H4.94964V31.3488C4.94964 31.7867 5.12348 32.2067 5.43292 32.5164C5.74236 32.826 6.16205 33 6.59966 33H26.3999C26.8375 33 27.2572 32.826 27.5667 32.5164C27.8761 32.2067 28.05 31.7867 28.05 31.3488V19.7904H31.35C31.6689 19.7907 31.981 19.6983 32.2484 19.5245C32.5158 19.3507 32.7271 19.1029 32.8565 18.8113C32.9868 18.5198 33.0296 18.1967 32.9798 17.8812C32.93 17.5658 32.7897 17.2717 32.576 17.0346L17.7258 0.522604C17.1004 -0.174201 15.8992 -0.174201 15.2738 0.522604L0.423624 17.0346C0.210261 17.2718 0.0701689 17.5658 0.0202984 17.881C-0.029572 18.1963 0.0129168 18.5192 0.142624 18.8108C0.272331 19.1023 0.483697 19.35 0.751145 19.5239C1.01859 19.6978 1.33066 19.7903 1.64959 19.7904ZM10.9772 15.8952C11.664 15.2167 12.5902 14.8362 13.5553 14.8362C14.5204 14.8362 15.4467 15.2167 16.1335 15.8952L16.5031 16.2585L16.8711 15.8952C17.5581 15.2166 18.4847 14.8361 19.45 14.8361C20.4154 14.8361 21.3419 15.2166 22.029 15.8952C22.3699 16.2234 22.641 16.617 22.8263 17.0525C23.0115 17.4881 23.107 17.9565 23.107 18.4298C23.107 18.9032 23.0115 19.3716 22.8263 19.8071C22.641 20.2426 22.3699 20.6363 22.029 20.9644L16.5031 26.3952L10.9772 20.9644C10.6363 20.6363 10.3651 20.2426 10.1799 19.8071C9.9947 19.3716 9.89923 18.9032 9.89923 18.4298C9.89923 17.9565 9.9947 17.4881 10.1799 17.0525C10.3651 16.617 10.6363 16.2234 10.9772 15.8952Z" fill="#0094FF"/>
</svg>
